<?xml version="1.0" encoding="UTF-8" standalone="no"?>
<!DOCTYPE svg PUBLIC "-//W3C//DTD SVG 1.1//EN" "http://www.w3.org/Graphics/SVG/1.1/DTD/svg11.dtd">
<svg width="100%" height="100%" viewBox="0 0 34 34" version="1.1" xmlns="http://www.w3.org/2000/svg" xmlns:xlink="http://www.w3.org/1999/xlink" xml:space="preserve" xmlns:serif="http://www.serif.com/" style="fill-rule:evenodd;clip-rule:evenodd;stroke-linejoin:round;stroke-miterlimit:2;">
    <g id="Reply" transform="matrix(-0.530521,5.73157e-32,-6.53918e-33,0.664286,882.862,-2018.4)">
        <path d="M1631.32,3055.07C1631.57,3055.07 1632.55,3055.1 1632.79,3055.11C1633.8,3055.16 1634.8,3055.24 1635.8,3055.37C1638.17,3055.68 1640.51,3056.24 1642.73,3057.12C1644.53,3057.83 1646.25,3058.77 1647.8,3059.93C1648.85,3060.7 1649.81,3061.58 1650.69,3062.54C1651.29,3063.19 1651.84,3063.89 1652.35,3064.62C1652.68,3065.08 1652.98,3065.56 1653.27,3066.04C1655.34,3069.54 1656.41,3073.57 1656.73,3077.61C1656.79,3078.37 1656.83,3079.14 1656.83,3079.91C1656.84,3080.85 1656.81,3081.78 1656.74,3082.72C1656.74,3082.75 1656.73,3082.78 1656.72,3082.81C1656.7,3082.88 1656.66,3082.93 1656.62,3082.99C1656.46,3083.15 1656.2,3083.18 1656.01,3083.05C1655.95,3083 1655.91,3082.95 1655.87,3082.89C1655.78,3082.71 1655.69,3082.51 1655.59,3082.32C1655.24,3081.62 1654.87,3080.93 1654.47,3080.25C1653.53,3078.63 1652.46,3077.09 1651.22,3075.69C1650.08,3074.39 1648.8,3073.21 1647.38,3072.22C1646.06,3071.29 1644.62,3070.53 1643.12,3069.96C1641.62,3069.39 1640.05,3069.01 1638.47,3068.79C1636.81,3068.57 1635.13,3068.51 1633.46,3068.59C1632.75,3068.62 1632.03,3068.68 1631.32,3068.76L1631.32,3078.97L1607.36,3061.95L1631.32,3044.95L1631.32,3055.07ZM1610.82,3061.95L1629.32,3075.1L1629.32,3066.96C1630.08,3066.88 1630.85,3066.79 1631.61,3066.72C1631.86,3066.69 1632.12,3066.67 1632.37,3066.65C1633.12,3066.6 1633.86,3066.56 1634.61,3066.56C1636.47,3066.54 1638.34,3066.69 1640.16,3067.05C1642.04,3067.42 1643.87,3068.02 1645.59,3068.85C1647.21,3069.64 1648.74,3070.64 1650.12,3071.81C1651.33,3072.83 1652.43,3073.97 1653.43,3075.2C1653.84,3075.71 1654.23,3076.23 1654.61,3076.76L1654.65,3076.82C1654.25,3073.22 1653.19,3069.66 1651.26,3066.58C1650.96,3066.11 1650.64,3065.64 1650.3,3065.2C1649.81,3064.55 1649.28,3063.94 1648.72,3063.37C1647.88,3062.52 1646.97,3061.76 1645.99,3061.09C1644.5,3060.07 1642.87,3059.27 1641.17,3058.67C1638.88,3057.86 1636.47,3057.4 1634.04,3057.2C1633.21,3057.13 1632.37,3057.09 1631.53,3057.07L1629.32,3057.03L1629.32,3048.82C1623.15,3053.2 1616.99,3057.58 1610.82,3061.95Z" style="fill-rule:nonzero;"/>
    </g>
</svg>
